<svg width="35" height="26" viewBox="0 0 35 26" fill="none" xmlns="http://www.w3.org/2000/svg">
<g clip-path="url(#clip0_21_270)">
<g clip-path="url(#clip1_21_270)">
<path d="M31.2647 0.600098H3.80327C2.01897 0.600098 0.57251 2.07286 0.57251 3.8896V21.9818C0.57251 23.7986 2.01897 25.2713 3.80327 25.2713H31.2647C33.049 25.2713 34.4955 23.7986 34.4955 21.9818V3.8896C34.4955 2.07286 33.049 0.600098 31.2647 0.600098Z" fill="white"/>
<path fill-rule="evenodd" clip-rule="evenodd" d="M0.57251 17.5616H34.4955V25.2713H0.57251V17.5616ZM0.57251 0.600098H34.4955V8.30986H0.57251V0.600098Z" fill="#3ECBF8"/>
<path d="M17.534 15.4028C18.8723 15.4028 19.9571 14.2982 19.9571 12.9356C19.9571 11.5731 18.8723 10.4685 17.534 10.4685C16.1958 10.4685 15.111 11.5731 15.111 12.9356C15.111 14.2982 16.1958 15.4028 17.534 15.4028Z" fill="#FFDA2C"/>
</g>
</g>
<defs>
<clipPath id="clip0_21_270">
<rect width="33.923" height="24.6712" fill="white" transform="translate(0.57251 0.600098)"/>
</clipPath>
<clipPath id="clip1_21_270">
<rect x="0.57251" y="0.600098" width="33.923" height="24.6712" rx="3.08391" fill="white"/>
</clipPath>
</defs>
</svg>
