<svg width="35" height="26" viewBox="0 0 35 26" fill="none" xmlns="http://www.w3.org/2000/svg">
<g clip-path="url(#clip0_21_271)">
<rect x="0.892456" y="0.600098" width="33.923" height="24.6712" rx="3.08391" fill="#249F58"/>
<path fill-rule="evenodd" clip-rule="evenodd" d="M26.7387 17.0478V15.403H8.96948L12.2002 17.0478H21.8925C21.8925 17.9557 22.978 18.6925 24.3156 18.6925C25.6531 18.6925 26.7387 17.9557 26.7387 17.0478ZM14.9948 7.02466C14.9755 7.02466 14.9464 7.03453 14.9092 7.05755C14.822 7.11676 14.6508 7.29933 14.6443 7.50986C14.6395 7.62993 14.6168 7.62993 14.6928 7.70723C14.7477 7.78618 14.8058 7.7796 14.9157 7.71874C14.9803 7.6694 15.0013 7.64144 15.0239 7.56085C15.0498 7.42927 14.8834 7.62664 14.8624 7.47532C14.8252 7.33716 14.9318 7.27795 15.032 7.14637C15.0352 7.08058 15.0352 7.03124 14.9948 7.02795V7.02466ZM16.6151 7.03288C16.5828 7.03946 16.5456 7.08222 16.4923 7.17762C16.4551 7.27959 16.292 7.4342 16.4115 7.75328C16.5052 7.95559 16.5456 8.28289 16.502 8.64967C16.4341 8.75329 16.4212 8.78947 16.3324 8.89309C16.2096 9.02961 16.0739 8.99507 15.9738 8.94244C15.8768 8.87665 15.8025 8.84375 15.7589 8.63651C15.767 8.30756 15.7864 7.76151 15.7266 7.64637C15.6394 7.46874 15.494 7.53124 15.4326 7.58552C15.137 7.86513 14.99 8.33059 14.8995 8.70395C14.8188 8.97369 14.7299 8.89474 14.6685 8.78619C14.5183 8.64145 14.507 7.51973 14.3261 7.70559C14.0353 8.55099 14.4925 9.47698 14.8107 9.38652C15.0368 9.4852 15.1822 9.04112 15.2759 8.55592C15.3405 8.41941 15.389 8.40296 15.4213 8.47368C15.4132 9.11843 15.4698 9.26316 15.6313 9.45724C15.9931 9.74343 16.2936 9.49343 16.3178 9.4704L16.6005 9.18421C16.6651 9.11842 16.7459 9.11185 16.8348 9.17106C16.922 9.25329 16.9107 9.38981 17.0932 9.48356C17.2515 9.54935 17.5827 9.50001 17.6586 9.36349C17.7636 9.18257 17.7878 9.12007 17.8363 9.05099C17.9106 8.95231 18.0382 8.99671 18.0382 9.02796C18.0269 9.08553 17.9526 9.1431 18.0027 9.24178C18.0915 9.30757 18.1125 9.26481 18.1642 9.25C18.3484 9.16119 18.4873 8.75329 18.4873 8.75329C18.4954 8.60197 18.4114 8.61349 18.3581 8.64474C18.2854 8.68914 18.2821 8.70395 18.2127 8.74836C18.1206 8.76151 17.9461 8.82237 17.8605 8.68586C17.7717 8.52138 17.7717 8.29441 17.7038 8.12664C17.7038 8.11677 17.5859 7.86841 17.6941 7.85361C17.7475 7.86348 17.867 7.89473 17.8848 7.7944C17.9429 7.69572 17.7604 7.41611 17.636 7.27795C17.5294 7.15788 17.3808 7.14308 17.237 7.26479C17.1352 7.36019 17.1514 7.46545 17.1304 7.56578C17.1061 7.68091 17.111 7.82401 17.2273 7.97697C17.3275 8.17763 17.51 8.4375 17.4486 8.80263C17.4486 8.80263 17.3436 8.97698 17.1578 8.95395C17.0771 8.9375 16.9511 8.90461 16.8832 8.39473C16.8348 8.01151 16.8961 7.47368 16.7378 7.22203C16.7007 7.12828 16.67 7.03617 16.6183 7.04111L16.6151 7.03288ZM16.1014 7.07565C16.0529 7.08058 15.9996 7.13815 15.956 7.24834C15.9188 7.33387 15.872 7.77466 15.8801 7.77466C15.8478 7.90624 16.0141 7.96217 16.0901 7.7944C16.2031 7.4819 16.2031 7.35032 16.2096 7.22203C16.1935 7.12334 16.1498 7.074 16.1014 7.07729V7.07565ZM17.9962 7.10854C17.9478 7.11512 17.9074 7.14473 17.8928 7.22038C17.8718 7.39473 17.8831 7.49177 17.9122 7.63815C17.9332 7.73683 18.0738 7.89802 18.1416 7.99342C18.4695 8.44243 18.7878 8.89309 19.0914 9.35856C19.1399 9.70724 19.1722 10.0461 19.1964 10.3849C19.2481 11.125 19.2611 12.0461 19.2174 12.8273C19.3531 12.8323 19.5728 12.602 19.6488 12.2681C19.6972 11.801 19.6326 10.8536 19.6261 10.5773L19.61 10.1859C19.9654 10.778 20.3078 11.403 20.6438 12.0872C20.7682 12.028 20.7407 11.3224 20.6697 11.2237C20.3983 10.6316 20.0235 10.0461 19.9056 9.82073C19.862 9.7385 19.715 9.51317 19.5421 9.25165C19.5098 8.87665 19.4743 8.56085 19.4517 8.46546C19.3951 8.07072 19.61 8.50987 19.5809 8.28125C19.5098 7.88651 19.2966 7.62006 19.0446 7.25821C18.9638 7.14308 18.9638 7.11676 18.8394 7.28782C18.7668 7.46052 18.7668 7.60526 18.791 7.74012C18.7554 7.69078 18.7151 7.63486 18.6569 7.56249L18.245 7.20723C18.1884 7.16611 18.0786 7.10361 17.9962 7.10854V7.10854ZM23.6113 7.1694C23.587 7.16611 23.5628 7.17762 23.5305 7.22203C23.474 7.27137 23.4142 7.36512 23.4174 7.48519C23.4287 7.69078 23.4659 7.90295 23.4788 8.11019L23.495 8.19243C23.4724 8.16611 23.453 8.14309 23.4417 8.13322C23.0427 7.70558 23.6242 8.06085 23.3641 7.73355C23.146 7.48683 23.0814 7.41117 22.8957 7.26315C22.7987 7.20394 22.7438 7.08551 22.7131 7.28617C22.7002 7.46216 22.6873 7.66776 22.697 7.81578C22.697 7.89802 22.7826 8.05427 22.8553 8.14473C23.1202 8.47862 23.3916 8.83224 23.663 9.20066C23.7211 9.95231 23.7357 10.6415 23.7922 11.3948C23.7857 11.7171 23.6888 12.1448 23.5984 12.1842C23.5984 12.1842 23.4562 12.2665 23.3625 12.176C23.293 12.1481 23.02 11.7106 23.02 11.7106C22.8795 11.579 22.7858 11.6168 22.6873 11.7106C22.4127 11.9803 22.2867 12.4869 22.1009 12.8356C22.0524 12.9129 21.9184 12.9803 21.7681 12.829C21.3853 12.2961 21.6066 11.5379 21.5614 11.7336C21.2221 12.125 21.3707 12.7731 21.4483 12.9129C21.5614 13.1431 21.6518 13.2912 21.8683 13.4014C22.0702 13.5494 22.2237 13.4589 22.3109 13.352C22.5112 13.1415 22.5144 12.6004 22.6081 12.4935C22.6727 12.2961 22.8391 12.329 22.9199 12.4178C23.0007 12.5329 23.0911 12.6069 23.2058 12.6694C23.3932 12.8372 23.6161 12.8668 23.8358 12.7138C23.986 12.6283 24.0846 12.5165 24.1718 12.2961C24.2687 12.0395 24.2203 10.6908 24.1993 9.9408L24.6193 10.5592C24.6774 11.2171 24.7049 11.8668 24.6839 12.4885C24.671 12.6119 25.1087 12.1201 25.1039 11.8865C25.1039 11.6842 25.1071 11.4984 25.1039 11.3273C25.3187 11.6727 25.5239 12.0231 25.7177 12.38C25.8389 12.3142 25.7985 11.6184 25.7226 11.5247C25.519 11.176 25.2574 10.801 25.0554 10.5082C25.015 10.1415 24.9617 9.70889 24.9359 9.57566C24.8987 9.36843 24.86 9.05757 24.8018 8.8125C24.7857 8.71875 24.7372 8.41283 24.7534 8.38487C24.776 8.31414 24.8664 8.38487 24.91 8.30592C24.9747 8.2319 24.6807 7.45065 24.5304 7.23025C24.4771 7.13157 24.3786 7.16446 24.259 7.32894C24.146 7.4342 24.188 7.67762 24.23 7.90953C24.3398 8.50164 24.44 9.10033 24.5175 9.70231C24.3721 9.48027 24.1944 9.21382 24.02 8.95888L23.9974 8.84375C23.9974 8.83059 23.9747 8.35855 23.9537 8.24671C23.9489 8.20065 23.9376 8.1875 23.986 8.19408C24.0345 8.23684 24.041 8.23848 24.0717 8.25329C24.1234 8.25987 24.1686 8.17434 24.1363 8.09375L23.6678 7.21545C23.6517 7.19407 23.629 7.17433 23.6032 7.17104L23.6113 7.1694ZM9.12133 7.18584C9.03248 7.18255 8.93879 7.23519 8.97594 7.3421C8.95333 7.39966 9.14394 7.59374 9.17787 7.70065C9.20533 7.77795 9.14556 8.02138 9.21017 8.04605C9.26671 8.07072 9.34586 7.87499 9.37494 7.69572C9.39109 7.59703 9.37979 7.25821 9.15363 7.18913C9.14233 7.18584 9.13102 7.18584 9.1181 7.1842L9.12133 7.18584ZM25.6305 7.18584C25.6095 7.18913 25.5853 7.21874 25.5497 7.30098C25.4609 7.449 25.4302 7.71216 25.4657 7.94243C25.6757 9.40626 25.8373 10.824 25.8696 12.1201C25.8502 12.2451 25.8437 12.3109 25.7888 12.4655C25.6628 12.63 25.5239 12.8339 25.393 12.9326C25.2638 13.0313 24.986 13.1267 24.8955 13.199C24.6047 13.3668 24.6047 13.5609 24.8374 13.5691C25.238 13.5198 25.7129 13.4869 26.0392 12.9852C26.1264 12.8454 26.2298 12.4638 26.233 12.2286C26.2653 10.8635 26.2169 9.52303 26.015 8.53454C26.002 8.43585 25.96 8.2171 25.9762 8.18914C26.0004 8.12006 26.1313 8.19408 26.1781 8.11677C26.2476 8.0444 25.8389 7.51315 25.6967 7.28617C25.6677 7.23025 25.6483 7.18255 25.6257 7.18749L25.6305 7.18584ZM21.4257 7.20887C21.4095 7.21216 21.3869 7.23848 21.3417 7.29933C21.2286 7.67104 21.1898 7.97368 21.2334 8.20723C21.5242 9.73685 21.815 11.1267 21.7697 12.5823C21.9054 12.5823 22.0637 12.2648 22.1316 11.949C22.1687 11.5132 22.1057 11.2484 22.0961 10.9951C22.0847 10.7385 21.8117 8.66612 21.7568 8.47368C21.689 8.10855 22.0217 8.42434 21.9862 8.21381C21.8699 7.94407 21.5824 7.55591 21.4951 7.32071C21.4628 7.25821 21.4564 7.20065 21.4305 7.20558L21.4257 7.20887ZM11.1939 7.23848C11.1616 7.24505 11.1244 7.27466 11.1131 7.32071C11.105 7.35361 11.126 7.40789 11.0969 7.42433C11.0808 7.44078 11.0194 7.42927 11.0226 7.3421C11.0226 7.31249 11.0016 7.28288 10.9903 7.26479C10.9774 7.25821 10.9693 7.25657 10.9467 7.25657C10.9192 7.25657 10.9192 7.26479 10.9047 7.28946C10.8982 7.31249 10.8886 7.33552 10.8886 7.36183C10.8853 7.39473 10.8724 7.40295 10.8514 7.40788C10.8256 7.40788 10.8304 7.41117 10.811 7.39637C10.7949 7.38486 10.7819 7.37992 10.7819 7.3569C10.7819 7.33223 10.7755 7.29111 10.769 7.27795C10.7577 7.2615 10.7399 7.25492 10.7206 7.24999C10.6139 7.24999 10.6075 7.37828 10.6123 7.42433C10.6042 7.4342 10.601 7.6546 10.7464 7.7171C10.9402 7.81249 11.3086 7.77137 11.2956 7.45065C11.2956 7.42269 11.2876 7.32729 11.2843 7.30262C11.2649 7.25328 11.2278 7.23683 11.1922 7.24177L11.1939 7.23848ZM13.8205 7.24177C13.7526 7.24506 13.6912 7.26479 13.6428 7.29111C13.5135 7.41775 13.4812 7.62006 13.5846 7.7467C13.6815 7.79605 13.7833 7.89473 13.7171 7.9523C13.436 8.25658 12.7042 8.76809 12.6671 8.86184V8.87171H12.6735V8.875C12.7107 8.89967 13.1695 8.89967 13.2195 8.875H13.2228C13.3811 8.81415 14.1274 7.94572 14.1274 7.94572C14.0886 7.91282 14.0531 7.88651 14.0143 7.85197C13.9723 7.81578 13.9772 7.7796 14.0143 7.74341C14.1985 7.63486 14.1403 7.39308 14.0434 7.28288C13.9626 7.2467 13.8883 7.23354 13.8205 7.23848V7.24177ZM20.6858 7.24177C20.6664 7.2467 20.6422 7.27466 20.6051 7.3569C20.5162 7.50492 20.4564 7.75986 20.4645 7.99835C20.6551 9.34705 20.7133 10.5263 20.8393 11.875C20.849 12.0066 20.8296 12.1941 20.7456 12.2698C20.429 12.6053 19.9751 13.0165 19.4808 13.2073C19.4274 13.2681 19.6132 13.5264 19.8523 13.5264C20.2529 13.477 20.6051 13.25 20.9346 12.6464C21.0202 12.5066 21.1737 12.2056 21.1769 11.9721C21.2092 10.6036 21.1123 9.53784 20.9087 8.55099C20.8974 8.4523 20.9055 8.33717 20.9217 8.31085C20.9475 8.27796 21.0347 8.31085 21.0832 8.23355C21.1511 8.16118 20.8991 7.57072 20.7569 7.34538C20.7278 7.28782 20.7117 7.24177 20.6858 7.24341V7.24177ZM10.0502 7.28617C9.99525 7.29275 9.94355 7.33552 9.91771 7.40131C9.90963 7.61512 9.90802 7.82894 9.93386 8.0296C10.0308 8.37993 10.0582 8.6875 10.1051 9.04441C10.1212 9.52468 9.83371 9.25165 9.84663 9.01481C9.91125 8.70559 9.89509 8.22039 9.83694 8.09704C9.78848 7.97368 9.73679 7.94407 9.62371 7.96546C9.53486 7.95888 9.30386 8.21217 9.23925 8.6398C9.23925 8.6398 9.18433 8.85691 9.16171 9.05099C9.1294 9.26974 8.98725 9.42599 8.8871 9.02138C8.80148 8.72533 8.74979 8.00164 8.60602 8.1694C8.56402 8.7352 8.51556 9.73192 8.98725 9.83389C9.55909 9.88981 9.24248 8.85033 9.44925 8.66118C9.48963 8.57072 9.56233 8.56908 9.56717 8.68586V9.56909C9.56071 9.85527 9.74486 9.9408 9.89025 10C10.0405 9.9885 10.139 9.99343 10.1972 10.1415L10.2699 11.6711C10.2699 11.6711 10.6156 11.7698 10.6317 10.8109C10.6479 10.2467 10.5186 9.77468 10.5946 9.66448C10.5978 9.55593 10.7335 9.54935 10.8272 9.60363C10.9774 9.71053 11.0436 9.84211 11.2762 9.78948C11.6316 9.6908 11.8416 9.51645 11.8465 9.24014C11.8303 8.97698 11.798 8.71382 11.6849 8.45066C11.7011 8.4046 11.6203 8.28125 11.6365 8.23355C11.6979 8.33223 11.7948 8.32566 11.8142 8.23355C11.756 8.03124 11.6623 7.83881 11.5105 7.75657C11.3861 7.64144 11.2036 7.66611 11.1357 7.89967C11.1034 8.1694 11.2326 8.48849 11.4265 8.75C11.4652 8.85198 11.5234 9.02138 11.4975 9.17435C11.3958 9.23356 11.294 9.20724 11.2068 9.11678C11.2068 9.11678 10.9273 8.90296 10.9273 8.85362C11.0032 8.36842 10.9435 8.31085 10.9031 8.17927C10.874 7.99177 10.7868 7.93256 10.7173 7.80427C10.6462 7.72697 10.5509 7.72697 10.5073 7.80427C10.3813 8.02302 10.4395 8.49506 10.5299 8.70395C10.5946 8.89803 10.6947 9.01974 10.6479 9.01974C10.6091 9.12665 10.5283 9.10198 10.4702 8.97533C10.3894 8.71217 10.37 8.32401 10.37 8.14802C10.3458 7.93092 10.3183 7.46545 10.1762 7.34703C10.139 7.2944 10.0954 7.2763 10.0518 7.28124L10.0502 7.28617ZM12.0565 7.28617C12.029 7.29275 11.9967 7.3092 11.9595 7.31907C11.8384 7.3569 11.7253 7.46381 11.7609 7.67104C11.9062 8.55921 11.9983 9.23849 12.1421 10.1267C12.1631 10.2319 12.0775 10.3684 11.9676 10.3569C11.7802 10.2253 11.7334 9.96218 11.4135 9.97534C11.1809 9.97534 10.916 10.2352 10.8837 10.4819C10.8449 10.6793 10.832 10.8931 10.8837 11.0642C11.0452 11.2615 11.2423 11.2418 11.4135 11.1957C11.5541 11.1382 11.672 10.9984 11.7205 11.0313C11.7528 11.0855 11.7172 11.5477 11.0582 11.903C10.6511 12.0905 10.328 12.1333 10.1536 11.7977C10.0469 11.5872 10.1632 10.7846 9.89832 10.9688C9.11325 13.028 11.735 13.3142 12.0274 11.0543C12.0468 10.9885 12.1033 10.926 12.1453 10.9425C12.1615 10.9507 12.1776 10.9753 12.1841 11.0214C12.1227 13.0675 10.1552 13.2089 9.8224 12.5642C9.7384 12.4129 9.71417 12.074 9.70609 11.8734C9.68994 11.75 9.66086 11.6793 9.62533 11.6513C9.54456 11.5905 9.43794 11.75 9.41533 12.0247C9.38302 12.2467 9.3911 12.3076 9.3911 12.5214C9.49771 14.1382 12.029 13.4425 12.4409 12.1102C12.6445 11.4194 12.4361 10.898 12.5055 10.8339L12.5104 10.8306H12.5152L12.5233 10.8273C12.7753 11.1036 13.1275 10.8602 13.205 10.7665C13.2373 10.7171 13.3213 10.6842 13.3795 10.75C13.5733 10.8915 13.919 10.824 13.9901 10.5691C14.0321 10.3224 14.0676 10.0691 14.0757 9.80429C13.9465 9.8454 13.8431 9.87501 13.8011 9.91942C13.7914 9.93093 13.7849 9.94409 13.7817 9.95725L13.7494 10.176C13.7494 10.1842 13.7462 10.1892 13.7429 10.1924C13.7381 10.204 13.7268 10.2122 13.7203 10.2171C13.6751 10.2418 13.5959 10.2286 13.5911 10.1612C13.5313 9.88159 13.2809 9.8454 13.1291 10.2813C13.0273 10.3635 12.8383 10.3799 12.8222 10.2549C12.8464 9.96218 12.7301 9.92271 12.4991 10.0609L12.2762 8.35033C12.3731 8.34539 12.4603 8.41612 12.5508 8.30427C12.4539 8.00164 12.2519 7.3865 12.1372 7.32729H12.134L12.1179 7.31084C12.1179 7.30756 12.113 7.30591 12.1098 7.30427L12.1033 7.2944C12.0969 7.2944 12.0904 7.29111 12.0872 7.28946C12.0759 7.28617 12.0662 7.28617 12.0549 7.28617H12.0565ZM19.8781 7.29275C19.778 7.28946 19.6681 7.35361 19.7101 7.4819C19.6843 7.55262 19.925 7.78947 19.9638 7.91776C20.0332 8.11513 19.9104 8.30756 19.9831 8.33552C20.051 8.36513 20.1447 8.12993 20.177 7.91118C20.219 7.73355 20.0962 7.3717 19.9185 7.29769L19.8781 7.2944V7.29275ZM13.7833 7.50821C13.8285 7.50492 13.8835 7.54769 13.9125 7.6069C13.94 7.67269 13.9255 7.73355 13.8802 7.74506C13.8318 7.75657 13.7704 7.71545 13.7413 7.64966C13.7122 7.58387 13.7252 7.52302 13.7736 7.5115H13.7833V7.50821ZM25.0861 7.80756C24.994 7.80427 24.8923 7.87335 24.9343 8.01315C24.9117 8.08881 25.1281 8.34539 25.1653 8.48684C25.1976 8.58553 25.1168 8.9079 25.1814 8.9375C25.2428 8.9704 25.3268 8.71382 25.3591 8.47697C25.3785 8.34539 25.2848 7.89309 25.1249 7.81249C25.1136 7.8092 25.1007 7.80591 25.0877 7.80591L25.0861 7.80756ZM18.8346 7.96546C18.8459 8.00328 18.854 8.04111 18.8588 8.08059C18.8782 8.16282 18.8944 8.24506 18.9105 8.33059C18.8394 8.22861 18.7813 8.14638 18.7538 8.11677C18.5923 7.9194 18.7571 7.98848 18.8346 7.96546V7.96546ZM20.2771 8.68586C20.2416 8.69243 20.2077 8.72368 20.1964 8.77303C20.1867 8.80263 20.2093 8.85526 20.1802 8.87171C20.1641 8.88816 20.0994 8.87829 20.1043 8.78948C20.1043 8.75987 20.0833 8.72862 20.072 8.71217C20.0591 8.70395 20.051 8.70066 20.0284 8.70066C20.0009 8.70066 20.0009 8.70888 19.9864 8.73355C19.9799 8.75658 19.9702 8.77961 19.9702 8.80757C19.9702 8.84046 19.9573 8.85033 19.9347 8.85691C19.9088 8.85691 19.9137 8.85691 19.8927 8.8454C19.8798 8.82895 19.8652 8.82566 19.8652 8.80263C19.8652 8.77796 19.8604 8.74013 19.8523 8.72369C19.841 8.70724 19.8248 8.7023 19.8038 8.69572C19.6988 8.69572 19.6908 8.82073 19.6972 8.86678C19.6908 8.87665 19.6859 9.10033 19.8313 9.16283C20.0284 9.25658 20.3967 9.21218 20.3805 8.89309C20.3805 8.86513 20.3724 8.76974 20.3708 8.74507C20.3498 8.69572 20.3127 8.67928 20.2788 8.68421L20.2771 8.68586ZM13.7025 8.75165C13.6799 8.75165 13.6476 8.75822 13.6105 8.78125C13.4376 8.87665 13.3714 9.15954 13.4812 9.32402C13.5782 9.47205 13.7397 9.41777 13.7607 9.41777C13.9303 9.4408 14.0305 9.0954 14.0305 9.0954C14.0305 9.0954 14.0353 8.99671 13.8366 9.18093C13.7494 9.19737 13.7397 9.16448 13.7171 9.11514C13.6977 9.02796 13.7009 8.93421 13.7413 8.84704C13.7607 8.79276 13.7413 8.75822 13.7025 8.75494V8.75165ZM22.9958 8.79605C22.8989 8.79112 22.7971 8.85526 22.7697 8.98849C22.7697 9.06744 22.8052 9.1102 22.7987 9.18257C22.7907 9.22369 22.7503 9.24836 22.6501 9.20231C22.6663 9.18586 22.5855 9.07402 22.5855 9.07402C22.5096 9.02467 22.4078 9.07402 22.34 9.12007C22.3028 9.18915 22.2754 9.30593 22.3174 9.42435C22.4272 9.63323 22.8068 9.9885 22.9877 9.99179C22.991 9.80429 23.0087 9.55428 23.02 9.39968C23.0233 9.34047 23.0362 9.27632 23.0927 9.26152C23.1477 9.24507 23.243 9.31744 23.243 9.25658C23.2333 9.13816 23.2107 8.96053 23.146 8.87829C23.1105 8.82895 23.054 8.79934 22.9974 8.79605H22.9958ZM15.3018 9.44902L15.2969 9.45395C15.2969 9.45395 15.2937 9.45395 15.2921 9.45724C15.2727 9.47369 15.2501 9.50659 15.2 9.53948C15.1144 9.63817 15.0998 9.70889 15.1031 9.90626C15.1095 9.92764 15.2646 10.3717 15.3987 10.6826C15.4892 11.0066 15.5715 11.3783 15.5118 11.7286C15.3018 12.1925 14.8818 12.6086 14.4731 12.8356C14.2631 12.9013 14.0854 12.8783 14.0369 12.8323C13.9174 12.75 13.9158 12.602 13.9238 12.579V12.574C14.2663 12.3306 14.6588 12.1333 14.9658 11.477C15.0562 11.2253 15.0853 11.074 14.9948 10.6875C14.9593 10.5395 14.9141 10.4244 14.8172 10.3191H14.8204C14.8785 10.2911 15.0304 10.4046 15.0546 10.3355C15.0175 10.148 14.8931 9.89968 14.7558 9.77139C14.633 9.65626 14.4973 9.64474 14.3875 9.74836C14.2615 9.82073 14.2356 10.0773 14.2954 10.301C14.3632 10.4688 14.5458 10.4984 14.675 10.8388C14.6782 10.8619 14.7186 11.0938 14.654 11.1892C14.5991 11.3569 13.919 11.903 13.8705 11.9359L13.8657 11.9392L13.8625 11.9425H13.8592H13.856V11.9375C13.8528 11.9244 13.856 11.8882 13.856 11.8339C13.8512 11.7319 13.8932 11.5 13.8883 11.4589V11.4556C13.6622 11.6036 13.5862 12.0559 13.5459 12.1908C12.9756 12.5905 12.3295 12.8882 11.9563 13.2928C11.7625 13.6053 13.2939 12.9408 13.4715 12.8602L13.4764 12.8652C13.5119 12.903 13.5135 13.0346 13.6153 13.1546C13.7768 13.3734 14.1128 13.5083 14.4424 13.4244C14.9948 13.2221 15.3147 12.8388 15.6378 12.4129C15.683 12.3471 15.7557 12.2911 15.8235 12.3438C16.0448 12.8504 16.6878 13.2122 17.5165 13.2484C17.7103 13.0115 17.6182 12.8948 17.5407 12.8454C17.5165 12.829 17.1288 12.6744 17.0674 12.5214C17.0302 12.38 17.1223 12.2533 17.3065 12.1596C17.8395 12.0938 18.3629 12.0198 18.8701 11.8536C18.875 11.6793 18.9751 11.4211 19.043 11.3076C19.0914 11.2303 19.1189 11.2221 19.1302 11.2122V11.2089H19.1334V11.204V11.1875L19.0462 11.1349L17.3452 11.1283C17.3242 11.1201 17.3097 11.1119 17.3 11.1036L17.2968 11.0987C17.2968 11.0987 17.2935 11.0987 17.2935 11.0954C17.2935 11.0921 17.2903 11.0921 17.2903 11.0921V11.0938V11.0905V11.0872V11.0839L17.2935 11.079C17.3016 11.0691 17.3226 11.0576 17.3468 11.0461C17.7539 10.9918 18.4744 10.8717 18.5228 10.1661C18.5148 9.79771 18.3678 9.55757 17.9251 9.49178C17.5988 9.51645 17.3662 9.83718 17.4034 10.1892C17.3872 10.2829 17.4357 10.4688 17.3388 10.4901C16.7152 10.5494 16.0335 10.9474 16.0109 11.2336H16.0077H16.0045H16.0012C16.0012 11.2369 15.998 11.2369 15.9964 11.2369H15.9899H15.9867H15.9802C15.9398 11.2237 15.8882 11.1546 15.8962 11.0609C15.872 10.5674 15.7137 10.0082 15.4682 9.5806C15.3793 9.49014 15.3389 9.45395 15.3163 9.44902H15.3115H15.3066H15.3034H15.3018ZM16.9301 9.70889C16.8978 9.71547 16.8606 9.74507 16.8493 9.79442C16.8412 9.82731 16.8655 9.87994 16.8364 9.89639C16.8202 9.91284 16.7556 9.90297 16.7588 9.81415C16.7588 9.78619 16.7378 9.75494 16.7265 9.73685C16.7136 9.72863 16.7055 9.72698 16.6845 9.72698C16.6571 9.72698 16.6555 9.73356 16.6409 9.75659C16.6328 9.77961 16.6248 9.80593 16.6248 9.8306C16.6215 9.8635 16.6086 9.87336 16.5876 9.87665C16.5618 9.87665 16.5682 9.88159 16.5472 9.86843C16.5343 9.85527 16.5181 9.84869 16.5181 9.82567C16.5181 9.801 16.5133 9.75988 16.5068 9.74343C16.4955 9.73192 16.4778 9.72698 16.4584 9.7204C16.3501 9.7204 16.3453 9.84376 16.3501 9.89146C16.3421 9.89968 16.3372 10.1217 16.4826 10.1842C16.6765 10.2796 17.1449 10.2237 17.0318 9.91613C17.0318 9.88817 17.0238 9.79277 17.0221 9.7681C17.0011 9.71876 16.964 9.70231 16.9285 9.70725L16.9301 9.70889ZM23.4966 9.98356H23.4804C23.4804 9.98356 22.5726 10.6415 22.5516 10.6645C22.4611 10.7467 22.5064 11.0313 22.5516 10.9984C22.6162 11.023 23.5289 10.3931 23.5111 10.3191C23.5515 10.3224 23.5709 9.99508 23.495 9.98192L23.4966 9.98356ZM17.7878 10.0822C17.8234 10.0773 17.8718 10.0905 17.9171 10.1151C17.9865 10.1579 18.0301 10.2171 18.0221 10.2632V10.2697C18.0188 10.2697 18.0188 10.2697 18.0188 10.273V10.2763C18.0188 10.2763 18.0156 10.2763 18.0156 10.2796C18.0156 10.2829 18.0108 10.2862 18.0075 10.2895C17.9752 10.3224 17.9009 10.3158 17.8298 10.273C17.762 10.2352 17.7216 10.1744 17.7248 10.1316V10.1267L17.7329 10.1102C17.7329 10.1102 17.7329 10.1069 17.7361 10.1053L17.7442 10.0954C17.7555 10.0872 17.7701 10.079 17.7878 10.079V10.0822ZM9.8434 10.2467C9.37494 10.2566 8.68517 10.875 8.66741 11.2171L10.1536 10.4934C10.0728 10.3684 10.1487 10.2566 9.8434 10.2467V10.2467ZM11.3667 10.4605C11.4119 10.4638 11.4604 10.4869 11.4862 10.5526C11.5089 10.6135 11.4862 10.676 11.4588 10.7073V10.7122C11.4362 10.7385 11.3683 10.7286 11.3182 10.7286C11.2585 10.7253 11.2294 10.7155 11.1939 10.6661C11.1745 10.6086 11.2262 10.5543 11.2504 10.5148L11.2617 10.4984C11.2779 10.4819 11.3102 10.4688 11.3425 10.4655L11.3635 10.4622L11.3667 10.4605ZM23.3205 10.653C23.2349 10.6628 23.1557 10.7434 23.1913 10.8717C23.1687 10.9474 23.3044 11.2122 23.3415 11.352C23.3738 11.4507 23.2995 11.7352 23.3657 11.7632C23.4271 11.7961 23.587 11.5987 23.5822 11.3454C23.5984 11.2138 23.537 10.7369 23.377 10.6579C23.3577 10.653 23.3383 10.6513 23.3189 10.653H23.3205ZM13.1695 11.1201C13.0952 11.125 13.0289 11.1645 13.0596 11.2714C13.0548 11.3471 13.2696 11.4408 13.2809 11.6168C13.31 11.6925 13.2325 11.9293 13.2971 11.949C13.3552 11.9737 13.436 11.7846 13.4667 11.6135C13.4829 11.5181 13.3924 11.1859 13.2405 11.125C13.2163 11.1184 13.1921 11.1168 13.1679 11.1184L13.1695 11.1201ZM16.2064 11.5411H16.2258C16.4164 11.5938 16.6942 11.6004 16.9365 11.6234C17.1352 11.6398 17.2321 11.7944 17.0496 11.8619C16.8655 11.9244 16.6894 11.977 16.6894 12.2434C16.712 12.375 16.7055 12.4441 16.6861 12.4737C16.6861 12.4786 16.6813 12.4819 16.6797 12.4836C16.6797 12.4836 16.6797 12.4869 16.6765 12.4869V12.4902H16.6716L16.6603 12.4951H16.6522C16.6086 12.5033 16.5456 12.4622 16.4988 12.4359C16.3857 12.3536 16.0707 12.1563 16.0255 11.7286C16.019 11.63 16.0901 11.5477 16.2031 11.5395L16.2064 11.5411ZM8.78533 11.8701C8.77402 11.8701 8.75302 11.9063 8.72071 11.9474C8.43964 12.3997 8.41379 13.0757 8.56887 13.2796C8.64964 13.3734 8.78533 13.4162 8.88548 13.3866C9.06317 13.3092 9.1391 12.9458 9.09548 12.8142C9.03894 12.7204 8.9921 12.7056 8.93394 12.7846C8.80956 13.0395 8.75625 12.8635 8.74817 12.7188C8.72879 12.4507 8.75464 12.2007 8.78371 12.0033C8.79987 11.9046 8.79987 11.8668 8.78371 11.8668L8.78533 11.8701ZM18.3112 12.4655C18.2902 12.4655 18.2692 12.4688 18.2466 12.4819C18.2418 12.4819 18.0463 12.6135 17.9833 12.7089C17.9445 12.7385 17.951 12.7632 17.9607 12.8158C17.9898 12.8865 18.0415 12.8652 18.1028 12.8323C18.1836 12.8191 18.2208 12.8734 18.2159 12.9704C18.1788 13.0938 18.2321 13.1382 18.2321 13.1464C18.2321 13.153 18.308 13.2204 18.3984 13.1678C18.5874 13.0938 18.7054 13.0198 18.9719 12.9622C19.0414 12.9622 19.0365 12.7714 18.9267 12.7648C18.7813 12.7714 18.6521 12.7813 18.5067 12.8964C18.4178 12.9162 18.4033 12.8602 18.3823 12.8109C18.3597 12.6892 18.434 12.6036 18.4178 12.5115C18.4211 12.5165 18.3726 12.4721 18.3096 12.4688L18.3112 12.4655ZM24.4109 12.6958L24.2817 12.7089C24.2235 12.7204 24.2041 12.7467 24.1928 12.8191C24.1977 12.926 24.2623 12.9211 24.3301 12.9639C24.3689 13.0132 24.3947 13.0592 24.3269 13.1448C24.2623 13.2023 24.2187 13.2352 24.154 13.2928C24.1266 13.3454 24.1056 13.4244 24.1993 13.4507C24.3689 13.5 24.7614 13.2402 24.7614 13.2369C24.826 13.1875 24.8034 13.0938 24.7986 13.0938C24.7598 13.051 24.6758 13.0773 24.6209 13.0691C24.5934 13.0691 24.5078 13.056 24.5466 12.977C24.5821 12.9277 24.595 12.8997 24.6193 12.8388C24.6435 12.7796 24.6193 12.7402 24.5256 12.7073C24.4771 12.6974 24.4448 12.6941 24.4077 12.6958H24.4109ZM22.0637 19.0445C22.4999 19.0659 22.907 19.0494 23.3399 19.0708C23.411 19.13 23.377 19.2682 23.3318 19.2912L23.3237 19.2945H23.3189H23.3124L22.9474 19.2846V19.2632C22.9118 19.1613 22.6695 19.1678 22.6114 19.2468V19.2517C22.6081 19.2517 22.6065 19.2567 22.6065 19.2583L22.6033 19.2665V19.2863C22.4094 19.3109 22.2398 19.2797 22.0492 19.2731C21.9927 19.2024 22.0007 19.0757 22.0654 19.0428L22.0637 19.0445Z" fill="white"/>
</g>
<defs>
<clipPath id="clip0_21_271">
<rect width="33.923" height="24.6712" fill="white" transform="translate(0.892456 0.600098)"/>
</clipPath>
</defs>
</svg>
